<?xml version="1.0" encoding="UTF-8" standalone="no"?>
<!-- Created with Inkscape (http://www.inkscape.org/) -->

<svg
   xmlns:dc="http://purl.org/dc/elements/1.1/"
   xmlns:cc="http://creativecommons.org/ns#"
   xmlns:rdf="http://www.w3.org/1999/02/22-rdf-syntax-ns#"
   xmlns:svg="http://www.w3.org/2000/svg"
   xmlns="http://www.w3.org/2000/svg"
   xmlns:xlink="http://www.w3.org/1999/xlink"
   xmlns:sodipodi="http://sodipodi.sourceforge.net/DTD/sodipodi-0.dtd"
   xmlns:inkscape="http://www.inkscape.org/namespaces/inkscape"
   width="112"
   height="52"
   id="svg5480"
   version="1.1"
   inkscape:version="0.48.4 r9939"
   sodipodi:docname="bncslogo.svg"
   inkscape:export-filename="C:\BNCS\Core_System\docs\HTML_Index\images\bncslogo.png"
   inkscape:export-xdpi="90"
   inkscape:export-ydpi="90">
  <defs
     id="defs5482" />
  <sodipodi:namedview
     id="base"
     pagecolor="#ffffff"
     bordercolor="#666666"
     borderopacity="1.0"
     inkscape:pageopacity="0.0"
     inkscape:pageshadow="2"
     inkscape:zoom="2.7053571"
     inkscape:cx="56"
     inkscape:cy="26"
     inkscape:document-units="px"
     inkscape:current-layer="layer1"
     showgrid="false"
     inkscape:window-width="1550"
     inkscape:window-height="774"
     inkscape:window-x="175"
     inkscape:window-y="175"
     inkscape:window-maximized="0" />
  <metadata
     id="metadata5485">
    <rdf:RDF>
      <cc:Work
         rdf:about="">
        <dc:format>image/svg+xml</dc:format>
        <dc:type
           rdf:resource="http://purl.org/dc/dcmitype/StillImage" />
        <dc:title></dc:title>
      </cc:Work>
    </rdf:RDF>
  </metadata>
  <g
     inkscape:label="Layer 1"
     inkscape:groupmode="layer"
     id="layer1"
     transform="translate(0,-1000.3622)">
    <g
       id="g5524"
       transform="matrix(0.22923259,0,0,0.22448329,2.0585559,1006.3208)">
      <g
         style="display:inline"
         inkscape:label="Photo"
         id="layer3">
        <g
           id="g3181"
           style="display:inline"
           transform="translate(0,-866.36218)">
          <path
             inkscape:connector-curvature="0"
             d="m 412.3709,1016.2314 c 16.99905,-2.5625 25.74667,-7.2909 30.33183,-16.39551 6.36576,-12.64024 6.02194,-33.85324 -0.71365,-44.03141 -5.03244,-7.60453 -14.86626,-10.3424 -45.26956,-12.6037 -11.04024,-0.82114 -21.47974,-1.77429 -23.19888,-2.11812 -8.65465,-1.73093 -9.20352,-13.73407 -0.90652,-19.82451 2.6961,-1.97908 4.40637,-2.09329 38.5,-2.57108 l 35.67856,-0.5 0,-11.5 0,-11.5 -32.3011,-0.26392 c -43.00026,-0.35134 -56.55523,1.65587 -66.48333,9.8448 -11.74512,9.68765 -14.17078,34.34876 -4.82762,49.08138 5.58986,8.8143 17.83438,12.23175 48.83476,13.62979 19.33549,0.87198 21.11734,1.49494 24.65631,8.62016 1.59607,3.21346 1.70715,4.35681 0.73765,7.59272 -1.37779,4.59865 -6.86484,9.67488 -11.34529,10.49586 -1.79926,0.32969 -31.39638,0.46438 -65.77138,0.29932 -61.20103,-0.29387 -62.59502,-0.34407 -67.07202,-2.41515 -5.58236,-2.58243 -7.58293,-6.30181 -8.91751,-16.57909 -2.10066,-16.17674 -0.72434,-41.3919 2.64711,-48.4967 1.20403,-2.5373 3.0292,-4.19445 6.2704,-5.69315 4.17567,-1.93079 6.82595,-2.15749 30.57202,-2.61504 l 26,-0.50098 0,-11 0,-11 -24,-0.29133 c -13.2,-0.16024 -27.6,0.1805 -32,0.75718 -17.50555,2.29436 -27.29389,7.79842 -32.41734,18.22852 -5.23618,10.65957 -6.47581,18.66222 -6.47581,41.80563 0,23.14341 1.23963,31.14606 6.47581,41.80563 4.88167,9.9379 14.742,15.7932 30.44812,18.081 3.28307,0.4782 34.09422,0.9217 68.46922,0.9855 49.85249,0.093 64.43825,-0.1761 72.07822,-1.3278 z m -254.07822,-48.04433 0.5,-49 16,0 c 17.10062,0 21.50415,0.90468 23.78822,4.88715 0.87888,1.53242 1.34914,14.61239 1.71178,47.61285 l 0.5,45.50003 13,0 13,0 0.25902,-51.14522 0.25903,-51.1452 -3.27922,-6.33461 c -2.94189,-5.68295 -3.93142,-6.67223 -9.61915,-9.61658 l -6.33993,-3.28198 -38.13987,0.26178 -38.13988,0.26178 -0.25944,59.5 c -0.14269,32.725 -0.0391,60.07603 0.23014,60.78003 0.37041,0.9685 3.59783,1.2119 13.25944,1 l 12.76986,-0.28 0.5,-49.00003 z M 51.7649,943.4752 c -0.295306,-0.76949 -0.409845,-6.99911 -0.254558,-13.8436 l 0.28234,-12.44453 18.5,0 c 21.737336,0 24.251809,0.64231 27.104744,6.9238 2.291205,5.0447 2.342338,7.41836 0.271305,12.59438 -2.687443,6.71658 -4.977851,7.38823 -26.621517,7.80664 -15.383074,0.29738 -18.841767,0.11142 -19.28234,-1.03669 z m 0.0019,52.00502 c -0.294221,-0.76673 -0.408761,-7.44635 -0.254533,-14.8436 l 0.280415,-13.44955 18.5,0 c 21.359815,0 24.014528,0.64799 27.052707,6.60331 3.748481,7.34764 1.365834,17.89281 -4.722498,20.90091 -4.181482,2.06597 -40.099893,2.75955 -40.856091,0.78893 z m 57.66831,18.93668 c 5.65855,-2.9293 6.65812,-3.9289 9.58737,-9.5874 3.25394,-6.28576 3.2702,-6.38946 3.2702,-20.85476 0,-13.55535 -0.17814,-14.93452 -2.63656,-20.41262 l -2.63657,-5.87505 2.63657,-5.87505 c 2.48354,-5.53407 2.63656,-6.77679 2.63656,-21.41262 l 0,-15.53759 -3.2702,-6.31717 c -2.93176,-5.6634 -3.92627,-6.6568 -9.6096,-9.59888 l -6.33941,-3.28171 -39.140391,0.26151 -39.140397,0.26151 -0.25944,59.5 c -0.142691,32.725 -0.04431,60.06253 0.218616,60.75003 0.37113,0.9704 9.188486,1.25 39.422067,1.25 l 38.944015,0 6.31717,-3.2702 z M 0.29268193,959.68707 l 0,-93 235.99999807,0 236,0 0,93 0,93.00003 -236,0 -235.99999807,0 0,-93.00003 z"
             style="fill:#f9f9f9"
             id="path3185" />
          <path
             inkscape:connector-curvature="0"
             id="path3183"
             d="m 24.751858,1016.4371 c -0.262931,-0.6875 -0.361307,-28.02503 -0.218616,-60.75003 l 0.25944,-59.5 39.140397,-0.26151 39.140391,-0.26151 6.33941,3.28171 c 5.68333,2.94208 6.67784,3.93548 9.6096,9.59888 l 3.2702,6.31717 0,15.53759 c 0,14.63583 -0.15302,15.87855 -2.63656,21.41262 l -2.63657,5.87505 2.63657,5.87505 c 2.45842,5.4781 2.63656,6.85727 2.63656,20.41262 0,14.4653 -0.0163,14.569 -3.2702,20.85476 -2.92925,5.6585 -3.92882,6.6581 -9.58737,9.5874 l -6.31717,3.2702 -38.944015,0 c -30.233581,0 -39.050937,-0.2796 -39.422067,-1.25 z m 67.871033,-21.74581 c 6.088332,-3.0081 8.470979,-13.55327 4.722498,-20.90091 -3.038179,-5.95532 -5.692892,-6.60331 -27.052707,-6.60331 l -18.5,0 -0.280415,13.44955 c -0.154228,7.39725 -0.03969,14.07687 0.254533,14.8436 0.756198,1.97062 36.674609,1.27704 40.856091,-0.78893 z m 0.29584,-52.23458 c 3.221892,-1.74471 6.394167,-7.75759 6.351989,-12.03988 -0.01208,-1.22637 -0.855061,-4.06405 -1.873294,-6.30596 -2.852935,-6.28149 -5.367408,-6.9238 -27.104744,-6.9238 l -18.5,0 -0.28234,12.44453 c -0.155287,6.84449 -0.04075,13.07411 0.254532,13.8436 0.848286,2.2106 36.835482,1.31997 41.153857,-1.01849 z m 38.844649,74.01039 c -0.26927,-0.704 -0.37283,-28.05503 -0.23014,-60.78003 l 0.25944,-59.5 38.13988,-0.26178 38.13987,-0.26178 6.33993,3.28198 c 5.68773,2.94435 6.67726,3.93363 9.61915,9.61658 l 3.27922,6.33461 -0.25903,51.1452 -0.25902,51.14522 -13,0 -13,0 -0.5,-45.50003 c -0.36264,-33.00046 -0.8329,-46.08043 -1.71178,-47.61285 -2.28407,-3.98247 -6.6876,-4.88715 -23.78822,-4.88715 l -16,0 -0.5,49 -0.5,49.00003 -12.76986,0.28 c -9.66161,0.2119 -12.88903,-0.031 -13.25944,-1 z m 140.06008,0.1066 c -15.70612,-2.2878 -25.56645,-8.1431 -30.44812,-18.081 -5.23618,-10.65957 -6.47581,-18.66222 -6.47581,-41.80563 0,-23.14341 1.23963,-31.14606 6.47581,-41.80563 5.12345,-10.4301 14.91179,-15.93416 32.41734,-18.22852 4.4,-0.57668 18.8,-0.91742 32,-0.75718 l 24,0.29133 0,11 0,11 -26,0.50098 c -23.74607,0.45755 -26.39635,0.68425 -30.57202,2.61504 -5.58239,2.58124 -7.58285,6.30021 -8.91751,16.57811 -2.10066,16.17674 -0.72434,41.3919 2.64711,48.4967 1.2038,2.53683 3.02981,4.19501 6.2704,5.69413 4.477,2.07108 5.87099,2.12128 67.07202,2.41515 34.375,0.16506 63.97212,0.0304 65.77138,-0.29932 4.48045,-0.82098 9.9675,-5.89721 11.34529,-10.49586 0.9695,-3.23591 0.85842,-4.37926 -0.73765,-7.59272 -3.53897,-7.12522 -5.32082,-7.74818 -24.65631,-8.62016 -31.00038,-1.39804 -43.2449,-4.81549 -48.83476,-13.62979 -9.34316,-14.73262 -6.9175,-39.39373 4.82762,-49.08138 9.9281,-8.18893 23.48307,-10.19614 66.48333,-9.8448 l 32.3011,0.26392 0,11.5 0,11.5 -35.67856,0.5 c -34.09363,0.47779 -35.8039,0.592 -38.5,2.57108 -5.94098,4.36099 -7.75857,13.0227 -3.68571,17.56414 2.0056,2.23634 4.70247,2.66123 27.79111,4.37849 30.4033,2.2613 40.23712,4.99917 45.26956,12.6037 6.73559,10.17817 7.07941,31.39117 0.71365,44.03141 -4.58516,9.10461 -13.33278,13.83301 -30.33183,16.39551 -7.63997,1.1517 -22.22573,1.4204 -72.07822,1.3278 -34.375,-0.064 -65.18615,-0.5073 -68.46922,-0.9855 z"
             style="fill:#4b4b4b" />
        </g>
        <image
           width="472"
           height="186"
           xlink:href="file:///C:/BNCS/Core_System/docs/logo/BNCS%20new%20logo%20large.bmp"
           id="image3172"
           x="0.29268193"
           y="866.68707"
           style="display:inline"
           transform="translate(0,-866.36218)" />
      </g>
      <g
         style="display:inline"
         transform="translate(0,-866.36218)"
         id="layer1-3"
         inkscape:label="Layer 1">
        <g
           transform="translate(0,866.36218)"
           id="g3205"
           style="display:inline">
          <path
             sodipodi:nodetypes="ssssssscccssssssssssssscccssssssss"
             inkscape:connector-curvature="0"
             id="path3237"
             d="m 412.3709,149.86923 c 16.99905,-2.56252 25.74667,-7.29094 30.33183,-16.39552 6.36576,-12.64024 6.02194,-33.853238 -0.71365,-44.031407 -5.03244,-7.604528 -14.86626,-10.342406 -45.26956,-12.603702 -11.04024,-0.821136 -21.47974,-1.77429 -23.19888,-2.11812 -8.65465,-1.730928 -9.20352,-13.734074 -0.90652,-19.824506 2.6961,-1.979082 4.40637,-2.093296 38.5,-2.571085 l 35.67856,-0.5 0,-11.5 0,-11.5 -32.3011,-0.263921 c -43.00026,-0.351339 -56.55523,1.655869 -66.48333,9.844799 -11.74512,9.687655 -14.17078,34.348758 -4.82762,49.081384 5.58986,8.814301 17.83438,12.231748 48.83476,13.629788 19.33549,0.87198 21.11734,1.49494 24.65631,8.62016 1.59607,3.21346 1.70715,4.35681 0.73765,7.59272 -1.37779,4.59865 -6.86484,9.67488 -11.34529,10.49586 -1.79926,0.32969 -31.39638,0.46438 -65.77138,0.29932 -61.20103,-0.29387 -62.59502,-0.34407 -67.07202,-2.41515 -5.58236,-2.58243 -7.58293,-6.30181 -8.91751,-16.57909 -2.10066,-16.176737 -0.72434,-41.391902 2.64711,-48.496704 1.20403,-2.537297 3.0292,-4.194444 6.2704,-5.693146 4.17567,-1.930789 6.82595,-2.157486 30.57202,-2.615038 l 26,-0.500982 0,-11 0,-11 -24,-0.291332 c -13.2,-0.160233 -27.6,0.1805 -32,0.757185 -17.50555,2.29436 -27.29389,7.798414 -32.41734,18.228513 -5.23618,10.65957 -6.47581,18.662223 -6.47581,41.805634 0,23.14341 1.23963,31.14606 6.47581,41.80563 4.88167,9.93789 14.742,15.79325 30.44812,18.08101 3.28307,0.47821 34.09422,0.9217 68.46922,0.98552 49.85249,0.0926 64.43825,-0.17613 72.07822,-1.32782 z"
             style="fill:#f9f9f9" />
          <path
             sodipodi:nodetypes="ccssscccccsscccscscc"
             inkscape:connector-curvature="0"
             id="path3235"
             d="m 158.29268,101.82489 0.5,-49 16,0 c 17.10062,0 21.50415,0.904679 23.78822,4.88715 0.87888,1.532418 1.34914,14.612392 1.71178,47.61285 l 0.5,45.5 13,0 13,0 0.25902,-51.145194 0.25903,-51.145194 -3.27922,-6.334608 c -2.94189,-5.682958 -3.93142,-6.67223 -9.61915,-9.616584 l -6.33993,-3.281976 -38.13987,0.261778 -38.13988,0.261778 -0.25944,59.5 c -0.14269,32.725 -0.0391,60.07601 0.23014,60.78003 0.37041,0.96846 3.59783,1.21186 13.25944,1 l 12.76986,-0.28003 z"
             style="fill:#f9f9f9" />
          <path
             sodipodi:nodetypes="cscsssscc"
             inkscape:connector-curvature="0"
             id="path3233"
             d="M 51.7649,77.11302 C 51.469594,76.343532 51.355055,70.113913 51.510342,63.269421 l 0.28234,-12.444531 18.5,0 c 21.737336,0 24.251809,0.642312 27.104744,6.923804 2.291205,5.044693 2.342338,7.418355 0.271305,12.594377 -2.687443,6.716579 -4.977851,7.388231 -26.621517,7.806637 -15.383074,0.297379 -18.841767,0.111427 -19.28234,-1.036688 z"
             style="fill:#f9f9f9" />
          <path
             sodipodi:nodetypes="sscssss"
             inkscape:connector-curvature="0"
             id="path3231"
             d="m 51.7668,129.11804 c -0.294221,-0.76673 -0.408761,-7.44635 -0.254533,-14.8436 l 0.280415,-13.44955 18.5,0 c 21.359815,0 24.014528,0.64799 27.052707,6.60331 3.748481,7.34764 1.365834,17.89281 -4.722498,20.90091 -4.181482,2.06597 -40.099893,2.75955 -40.856091,0.78893 z"
             style="fill:#f9f9f9" />
          <path
             sodipodi:nodetypes="sssscsscsscccscscs"
             inkscape:connector-curvature="0"
             id="path3229"
             d="m 109.43511,148.05469 c 5.65855,-2.92925 6.65812,-3.92882 9.58737,-9.58737 3.25394,-6.28576 3.2702,-6.38946 3.2702,-20.85476 0,-13.55535 -0.17814,-14.93452 -2.63656,-20.412624 l -2.63657,-5.875046 2.63657,-5.875046 c 2.48354,-5.534077 2.63656,-6.776795 2.63656,-21.412627 l 0,-15.537582 -3.2702,-6.317175 c -2.93176,-5.6634 -3.92627,-6.656803 -9.6096,-9.59888 l -6.33941,-3.281706 -39.140391,0.261508 -39.140397,0.261508 -0.25944,59.5 c -0.142691,32.725 0.809114,58.74954 0.349912,61.66907 2.931402,-0.0799 9.05719,0.33093 39.290771,0.33093 l 38.944015,0 z"
             style="fill:#f9f9f9" />
          <path
             sodipodi:nodetypes="ccccccccc"
             inkscape:connector-curvature="0"
             id="path3209"
             d="m 0.29268193,93.32489 0,-93 235.99999807,0 236,0 0,93 0,93 -236,0 -235.99999807,0 z"
             style="fill:#f9f9f9" />
          <path
             sodipodi:nodetypes="cscscsscscsssscscsssccsssssccsssccsssccccsscccsssssscccsssssscssssssccccsssssssss"
             inkscape:connector-curvature="0"
             id="path3207"
             d="m 24.554914,151.19091 c 0.06531,-2.39435 -0.164363,-29.14102 -0.02167,-61.86602 l 0.25944,-60.614083 c 0,0 28.50721,-0.04462 49.724189,-0.07583 41.208107,-0.06062 16.180574,0.06426 28.927957,0.109851 7.52895,0.05653 8.98882,2.11114 12.09551,4.95283 2.60966,2.387067 3.61328,4.201765 4.7819,7.742075 1.52255,4.612517 2.38212,15.289868 1.97044,22.597479 0,14.635832 -0.15302,15.87855 -2.63656,21.412627 l -2.63657,5.875046 2.63657,5.875046 c 2.04227,4.550779 2.63656,6.857279 2.63656,20.412629 0,14.46529 -0.38766,15.86876 -2.52748,19.92636 -2.97224,5.63608 -2.44337,4.98698 -7.17352,10.1444 0,0 -4.75606,2.89492 -9.47374,3.64156 l -23.713678,0 c -30.233581,0 -50.473688,0.11431 -54.849348,-0.13397 z M 97.68132,123.01935 c 2.5741,-4.13931 2.52937,-11.37918 -0.707292,-16.89091 -2.845827,-4.84618 -7.526666,-5.84234 -19.227731,-5.67491 l -25.953615,0.37136 -0.02588,29.01528 26.275053,0.15608 c 14.086563,0.0837 16.118667,-1.31524 19.639465,-6.9769 z M 97.218913,72.752276 C 100.42816,68.916971 99.941631,60.666501 96.732186,56.44893 92.514578,50.906516 87.687181,49.935696 77.534222,50.082168 l -25.74154,0.371361 -0.02781,27.959255 26.261876,-0.172741 c 9.380583,-0.0617 14.402093,0.236753 19.192165,-5.487767 z M 131.82903,151.4507 C 131.39496,108.65603 131.40813,74.13386 131.607,28.525126 l 38.32556,0.01674 39.43964,0.179181 c 2.42265,0.01101 4.98566,0.656336 7.26833,1.63406 5.6796,2.432712 6.50656,5.205253 8.40431,9.616585 0.75298,1.750302 1.98059,4.346859 2.22817,8.191413 l 0,51.145194 0,52.139241 -26.51315,0 -0.22485,-46.12269 c -0.16089,-33.002055 -1.07523,-46.080428 -1.95411,-47.612846 -2.28407,-3.982471 -6.6876,-4.88715 -23.78822,-4.88715 l -16,0 c -0.75389,32.88782 -0.31414,65.768676 0.0504,98.656476 -9.06838,0.0115 -17.94734,-0.0102 -27.01402,-0.0307 z m 139.99443,-1.23917 c -15.70612,-2.28776 -25.56645,-8.14312 -30.44812,-18.08101 -5.23618,-10.65957 -6.47581,-18.66222 -6.47581,-41.80563 0,-23.143411 1.23963,-31.146064 6.47581,-41.805634 5.12345,-10.430099 14.91179,-15.934153 32.41734,-18.228513 4.4,-0.576685 18.8,-0.917418 32,-0.757185 l 24,0.291332 0,11 0,11 -26,0.500982 c -23.74607,0.457552 -26.39635,0.684249 -30.57202,2.615038 -5.58239,2.581245 -7.58285,6.300206 -8.91751,16.578107 -2.10066,16.17674 -0.72434,41.391903 2.64711,48.496703 1.2038,2.53683 3.02981,4.19501 6.2704,5.69413 4.477,2.07108 5.87099,2.12128 67.07202,2.41515 34.375,0.16506 63.97212,0.0304 65.77138,-0.29932 4.48045,-0.82098 9.59614,-4.41177 10.97393,-9.01042 0.9695,-3.23591 1.22978,-5.8647 -0.36629,-9.07816 -3.53897,-7.12522 -5.32082,-7.74818 -24.65631,-8.62016 -31.00038,-1.39804 -43.2449,-4.815487 -48.83476,-13.629788 -9.34316,-14.732626 -6.9175,-39.393729 4.82762,-49.081384 9.9281,-8.18893 23.48307,-10.196138 66.48333,-9.844799 l 32.8129,0.07824 c 0,7.666667 0,15.519014 0,23.185681 l -36.19036,0.5 c -34.09372,0.471033 -37.28934,0.406322 -39.98544,2.385404 -5.94098,4.360988 -6.27313,13.208375 -2.20027,17.749819 2.0056,2.236339 4.70247,2.661232 27.79111,4.378488 30.4033,2.261296 40.23712,4.999174 45.26956,12.603702 6.73559,10.178169 7.07941,31.391167 0.71365,44.031407 -4.58516,9.10458 -13.33278,13.833 -30.33183,16.39552 -7.63997,1.15169 -22.78277,1.68675 -72.63526,1.59418 -34.375,-0.0638 -64.62911,-0.77367 -67.91218,-1.25188 z"
             style="fill:#0006cb;fill-opacity:1" />
        </g>
      </g>
    </g>
  </g>
</svg>
